<svg width="390" height="844" viewBox="0 0 390 844" fill="none" xmlns="http://www.w3.org/2000/svg">
<rect width="390" height="844" fill="#FCFCFC"/>
<path d="M190.267 415.965C190.012 415.013 189.763 414.054 189.483 413.052C187.74 405.857 186.533 398.531 185.848 391.13C191.276 392.462 197.052 393.651 203.158 394.69C202.081 403.672 200.251 412.666 197.674 421.58C197.401 422.52 197.587 423.534 198.179 424.312C198.77 425.09 199.691 425.557 200.668 425.557C219.528 425.557 235.519 414.913 243.399 399.035C252.667 396.284 259.097 390.159 260.304 382.789C261.107 377.891 260.248 368.255 245.428 358.707C243.617 353.784 241.046 348.829 237.679 343.787C236.72 342.356 234.791 341.976 233.359 342.928C231.927 343.887 231.548 345.816 232.5 347.248C239.179 357.232 242.422 366.73 242.422 376.279C242.422 398.979 226.207 417.048 204.808 419.134C208.605 404.724 210.528 390.14 210.528 375.725C210.528 363.046 209.04 350.485 206.102 338.266C206.09 338.185 206.065 338.104 206.046 338.023C206.046 337.999 206.034 337.98 206.028 337.955C205.312 335.017 204.521 332.098 203.637 329.21C203.14 327.573 201.409 326.645 199.772 327.131C198.129 327.622 197.195 329.34 197.674 330.984C198.278 333.056 198.739 334.774 199.218 336.592C199.473 337.544 199.722 338.503 200.002 339.511C202.859 351.319 204.303 363.463 204.303 375.725C204.303 379.963 204.123 384.221 203.781 388.485C197.22 387.358 191.083 386.076 185.394 384.632C185.263 382.036 185.182 379.441 185.182 376.833C185.182 361.601 187.41 346.177 191.811 330.977C192.085 330.038 191.898 329.023 191.307 328.245C190.716 327.467 189.801 327 188.823 327C179.891 327 171.364 329.384 163.938 333.834C151.906 332.141 140.989 335.341 135.256 342.331C131.217 347.248 130.283 353.36 132.617 359.529C134.086 363.413 136.756 367.104 140.516 370.577C140.304 372.457 140.186 374.361 140.186 376.279C140.186 389.057 144.3 400.417 152.081 409.119C153.226 410.401 155.193 410.507 156.475 409.361C157.757 408.216 157.863 406.249 156.718 404.967C149.971 397.423 146.404 387.501 146.404 376.279C146.404 375.93 146.423 375.588 146.429 375.245C154.539 380.785 165.706 385.597 179.462 389.449C180.122 397.834 181.416 406.143 183.377 414.291C183.389 414.372 183.414 414.453 183.433 414.534C183.433 414.559 183.445 414.577 183.452 414.596C184.168 417.534 184.964 420.453 185.842 423.347C186.253 424.692 187.485 425.557 188.817 425.557C189.11 425.557 189.408 425.514 189.707 425.426C191.35 424.935 192.284 423.217 191.805 421.574C191.195 419.501 190.74 417.783 190.261 415.965H190.267ZM254.155 381.775C253.545 385.472 250.762 388.765 246.53 391.062C247.905 386.412 248.646 381.451 248.646 376.279C248.646 373.683 248.434 371.094 248.017 368.511C252.704 372.88 254.864 377.455 254.155 381.775ZM138.437 357.325C136.899 353.267 137.466 349.445 140.068 346.277C143.317 342.318 149.236 339.972 156.145 339.654C155.51 340.239 154.888 340.837 154.278 341.459C148.309 347.547 144.114 354.972 141.929 363.089C140.117 360.917 139.053 358.956 138.437 357.332V357.325ZM156.799 374.243C152.815 372.152 149.653 370.073 147.145 368.087C149.317 356.192 156.164 346.165 165.75 339.965C166.111 339.822 166.44 339.617 166.727 339.355C172.03 336.131 178.111 334.04 184.678 333.424C180.881 347.833 178.958 362.417 178.958 376.839C178.958 378.868 179.008 380.897 179.088 382.92C170.499 380.418 163.042 377.523 156.805 374.243H156.799Z" fill="#6D2FEF"/>
<path d="M216.883 395.27L217.524 395.475C219.497 396.097 221.041 397.647 221.67 399.62L221.875 400.262C222.118 401.021 223.188 401.021 223.425 400.262L223.63 399.62C224.253 397.647 225.803 396.104 227.776 395.475L228.417 395.27C229.176 395.027 229.176 393.956 228.417 393.72L227.776 393.514C225.803 392.892 224.259 391.342 223.63 389.369L223.425 388.728C223.182 387.968 222.112 387.968 221.875 388.728L221.67 389.369C221.047 391.342 219.497 392.886 217.524 393.514L216.883 393.72C216.124 393.962 216.124 395.033 216.883 395.27Z" fill="#6D2FEF"/>
<path d="M124.513 444.411C124.04 443.577 122.994 443.347 122.228 443.347C120.448 443.347 119.72 444.672 119.266 446.067C118.793 447.511 117 452.36 117 453.492C117 454.327 117.299 454.887 118.394 454.887C119.49 454.887 119.596 453.891 120.031 453.144C120.293 452.69 120.66 452.36 121.755 452.36C122.434 452.36 123.063 452.428 123.361 452.447C123.99 452.484 124.37 452.901 124.619 453.492C124.93 454.277 125.278 454.887 126.119 454.887C127.183 454.887 127.513 454.277 127.513 453.511C127.513 452.553 126.642 450.393 126.33 449.328C125.826 447.635 125.216 445.631 124.519 444.411H124.513ZM123.274 450.455C122.907 450.542 122.365 450.542 121.917 450.542C121.357 450.542 120.697 450.405 120.697 449.671C120.697 449.322 121.357 447.181 121.762 446.446C121.83 446.291 122.073 446.166 122.266 446.166C122.596 446.166 122.789 446.515 122.913 446.795C123.193 447.473 123.822 449.079 123.822 449.776C123.822 450.162 123.579 450.405 123.28 450.455H123.274Z" fill="#6D2FEF"/>
<path d="M137.061 443.347C135.879 443.347 135.717 444.006 135.717 445.351C135.717 447.218 136.24 449.447 136.24 450.965C136.24 450.984 136.24 451.382 136.134 451.382C136.084 451.382 136.009 451.245 135.997 451.208C135.437 450.144 134.777 449.079 134.273 448.003C133.75 446.87 132.897 445.077 132.132 444.119C131.733 443.596 131.192 443.353 130.526 443.353C128.976 443.353 128.646 444.274 128.646 445.656C128.646 447.038 128.714 448.252 128.714 449.627C128.714 450.741 128.646 451.893 128.646 453.007C128.646 453.928 128.926 454.974 130.04 454.974C131.154 454.974 131.472 454.345 131.472 453.3C131.472 451.488 131.086 450.025 131.086 448.052C131.086 448.015 131.105 447.548 131.173 447.548C131.329 447.548 131.559 448.034 131.627 448.177C132.449 449.677 134.397 453.685 135.723 454.588C136.034 454.812 136.401 454.937 136.787 454.937C138.406 454.937 138.462 453.243 138.462 452.023C138.462 451.519 138.443 451.046 138.443 450.542C138.443 447.648 138.636 447.038 138.636 445.351C138.636 443.994 138.306 443.347 137.067 443.347H137.061Z" fill="#6D2FEF"/>
<path d="M144.954 443.377C141.418 443.377 139.831 446.029 139.831 449.477C139.831 452.926 141.661 455.104 144.923 455.104C148.184 455.104 150.133 452.789 150.133 449.228C150.133 445.668 148.601 443.371 144.954 443.371V443.377ZM145.022 452.67C143.174 452.67 142.545 450.803 142.545 449.234C142.545 447.355 143.068 445.749 145.022 445.749C146.977 445.749 147.425 447.716 147.425 449.216C147.425 450.977 146.815 452.664 145.022 452.664V452.67Z" fill="#6D2FEF"/>
<path d="M158.062 443.203C156.861 443.203 156.095 443.446 154.402 443.446C153.55 443.446 152.765 443.253 151.894 443.253C151.023 443.253 150.307 443.477 150.307 444.51C150.307 445.73 151.054 445.973 152.087 445.973C152.348 445.973 152.56 445.923 152.765 445.923C153.5 445.923 153.792 446.048 153.792 447.268C153.792 449.147 153.425 451.382 153.425 452.969C153.425 454.152 153.637 455.061 154.944 455.061C156.512 455.061 156.562 454.065 156.562 452.689C156.562 450.822 156.282 449.048 156.282 447.044C156.282 446.396 156.282 446.035 157.029 446.035C157.502 446.035 158.006 446.122 158.511 446.122C159.332 446.122 159.855 445.375 159.855 444.641C159.855 443.732 159.089 443.209 158.062 443.209V443.203Z" fill="#6D2FEF"/>
<path d="M169.148 443.365C167.754 443.365 167.648 444.131 167.648 445.282C167.648 445.787 167.716 446.328 167.716 446.832C167.716 448.09 166.845 448.295 165.762 448.295C164.822 448.295 163.795 448.034 163.795 446.882C163.795 446.253 163.932 445.469 163.932 444.828C163.932 443.589 163.216 443.384 162.401 443.384C161.405 443.384 160.851 443.907 160.851 444.915C160.851 445.575 161.044 446.658 161.044 448.276C161.044 449.895 160.851 451.501 160.851 453.106C160.851 454.432 161.218 455.005 162.556 455.005C163.534 455.005 163.901 454.432 163.901 453.505C163.901 452.789 163.776 452.322 163.776 451.606C163.776 450.61 164.61 450.424 165.644 450.424C166.795 450.424 167.735 450.561 167.735 451.594C167.735 452.135 167.629 452.534 167.629 453.094C167.629 454.158 167.822 455.011 169.092 455.011C170.275 455.011 170.592 454.47 170.592 453.374C170.592 452.54 170.486 451.681 170.486 450.828C170.486 448.893 170.679 447.013 170.679 445.096C170.679 444.013 170.331 443.371 169.148 443.371V443.365Z" fill="#6D2FEF"/>
<path d="M179.2 452.217C178.086 452.217 176.798 452.497 175.677 452.497C174.999 452.497 174.594 452.061 174.594 451.401C174.594 450.654 174.906 450.132 175.709 450.132C176.144 450.132 176.823 450.181 177.258 450.181C177.868 450.181 179.138 450.132 179.138 449.048C179.138 448.283 178.914 447.76 177.781 447.76C177.24 447.76 176.263 447.81 175.727 447.81C174.719 447.81 174.576 447.443 174.576 446.54C174.576 445.774 175.204 445.631 175.814 445.631C176.754 445.631 177.769 445.893 178.796 445.893C179.599 445.893 180.122 445.494 180.122 444.654C180.122 443.26 179.057 443.26 177.962 443.26C177.314 443.26 176.53 443.366 175.87 443.366C175.397 443.366 174.949 443.347 174.457 443.347C172.609 443.347 172.154 443.92 172.154 445.942C172.154 446.59 172.173 447.387 172.173 448.034C172.173 449.273 172.067 450.524 172.067 451.849C172.067 453.001 172.105 454.85 173.636 454.85C175.167 454.85 176.754 454.987 178.273 454.987C179.425 454.987 180.364 454.675 180.364 453.592C180.364 452.827 180.016 452.217 179.194 452.217H179.2Z" fill="#6D2FEF"/>
<path d="M189.9 452.409C189.166 451.867 188.4 451.5 187.722 450.927C187.423 450.685 187.392 450.529 187.827 450.405C189.346 449.95 190.18 448.351 190.18 446.832C190.18 443.85 187.691 443.122 185.263 443.122C183.122 443.122 181.304 443.383 181.304 445.649C181.304 446.956 181.497 448.245 181.497 449.533C181.497 450.822 181.36 452.129 181.36 453.417C181.36 454.426 181.815 454.986 182.804 454.986C183.869 454.986 184.267 454.426 184.267 453.455C184.267 452.72 184.143 452.011 184.143 451.257C184.143 451.208 184.143 450.959 184.211 450.927C184.858 451.488 185.537 452.272 186.078 452.969C186.825 453.909 187.715 455.023 189.023 455.023C189.894 455.023 190.572 454.482 190.572 453.592C190.572 453.069 190.274 452.701 189.894 452.409H189.9ZM185.251 448.954C184.118 448.954 183.906 448.189 183.906 447.106C183.906 445.848 184.08 445.382 185.425 445.382C186.402 445.382 187.479 445.836 187.479 446.931C187.479 448.239 186.52 448.954 185.251 448.954Z" fill="#6D2FEF"/>
<path d="M203.638 443.465C202.293 443.465 202.119 444.442 202.119 445.382C202.119 447.056 202.343 448.556 202.343 450.312C202.343 451.532 201.801 452.528 200.476 452.528C198.838 452.528 198.434 451.239 198.434 449.864C198.434 448.295 198.646 446.919 198.646 445.351C198.646 444.342 198.49 443.484 197.127 443.484C195.764 443.484 195.596 444.791 195.596 446.204C195.596 447.791 195.701 449.117 195.751 450.841C195.801 453.648 197.843 455.111 200.245 455.111C203.886 455.111 205.019 452.689 205.088 449.901C205.106 448.992 205.125 447.131 205.125 446.067C205.125 444.952 205.088 443.471 203.625 443.471L203.638 443.465Z" fill="#6D2FEF"/>
<path d="M215.153 443.347C213.97 443.347 213.808 444.006 213.808 445.351C213.808 447.218 214.331 449.447 214.331 450.965C214.331 450.984 214.331 451.382 214.225 451.382C214.175 451.382 214.101 451.245 214.088 451.208C213.528 450.144 212.868 449.079 212.364 448.003C211.841 446.87 210.988 445.077 210.223 444.119C209.824 443.596 209.283 443.353 208.617 443.353C207.067 443.353 206.737 444.274 206.737 445.656C206.737 447.038 206.806 448.252 206.806 449.627C206.806 450.741 206.737 451.893 206.737 453.007C206.737 453.928 207.017 454.974 208.131 454.974C209.246 454.974 209.563 454.345 209.563 453.3C209.563 451.488 209.177 450.025 209.177 448.052C209.177 448.015 209.196 447.548 209.264 447.548C209.42 447.548 209.65 448.034 209.719 448.177C210.54 449.677 212.489 453.685 213.814 454.588C214.126 454.812 214.493 454.937 214.879 454.937C216.497 454.937 216.553 453.243 216.553 452.023C216.553 451.519 216.534 451.046 216.534 450.542C216.534 447.648 216.727 447.038 216.727 445.351C216.727 443.994 216.397 443.347 215.159 443.347H215.153Z" fill="#6D2FEF"/>
<path d="M220.138 443.365C219.074 443.365 218.694 444.168 218.694 445.127C218.694 446.309 218.887 447.343 218.887 449.154C218.887 450.393 218.713 451.681 218.713 452.882C218.713 453.997 218.974 454.992 220.3 454.992C221.626 454.992 221.8 454.102 221.8 452.951C221.8 451.625 221.589 450.268 221.589 448.942C221.589 447.548 221.813 446.291 221.813 444.915C221.813 443.714 221.01 443.365 220.138 443.365Z" fill="#6D2FEF"/>
<path d="M231.797 443.347C231.342 443.347 231.062 443.571 230.788 443.888C230.197 444.548 230.004 446.204 229.83 447.094C229.326 449.901 228.958 451.015 228.784 451.501C228.734 451.625 228.61 451.936 228.436 451.936C228.261 451.936 227.875 450.841 227.807 450.667C227.39 449.291 226.973 447.859 226.693 446.434C226.469 445.32 226.294 443.347 224.738 443.347C223.904 443.347 223.132 443.801 223.132 444.722C223.132 445.457 223.5 446.154 223.742 446.919C224.11 447.984 224.439 449.011 224.769 450.094C225.168 451.47 225.709 453.007 226.531 454.171C226.967 454.762 227.732 454.974 228.467 454.974C230.297 454.974 230.975 453.107 231.467 451.594C231.903 450.181 232.338 448.737 232.705 447.287C232.898 446.465 233.44 445.737 233.44 444.865C233.44 443.857 232.811 443.347 231.803 443.347H231.797Z" fill="#6D2FEF"/>
<path d="M241.749 452.197C240.722 452.197 239.484 452.546 238.457 452.546C237.498 452.546 237.081 452.179 237.081 451.201C237.081 450.486 237.392 450.156 238.108 450.156C238.681 450.156 239.415 450.243 240.007 450.243C241.09 450.243 241.749 450.05 241.749 448.811C241.749 447.921 241.102 447.641 240.318 447.641C239.621 447.641 238.836 447.834 238.158 447.834C237.355 447.834 237.062 447.61 237.062 446.807C237.062 445.78 237.585 445.655 238.475 445.655C239.415 445.655 240.461 445.848 241.388 445.848C242.154 445.848 242.54 445.238 242.54 444.541C242.54 443.477 241.513 443.271 240.66 443.271C240.069 443.271 239.478 443.34 238.114 443.34C237.28 443.34 236.266 443.359 235.743 443.514C234.647 443.863 234.473 445.22 234.473 446.178C234.473 447.261 234.685 448.27 234.685 449.353C234.685 450.261 234.548 451.183 234.548 452.073C234.548 453.778 235.021 454.967 236.764 454.967C237.548 454.967 238.021 454.899 238.805 454.899C239.085 454.899 240.044 454.986 240.548 454.986C241.662 454.967 242.777 454.83 242.777 453.455C242.777 452.739 242.534 452.197 241.768 452.197H241.749Z" fill="#6D2FEF"/>
<path d="M251.509 451.731C251.229 451.538 249.959 450.878 249.959 450.549C249.959 450.268 250.588 450.219 251.142 449.764C251.995 449.067 252.536 448.264 252.536 446.82C252.536 443.907 250.289 443.11 247.781 443.11C245.584 443.11 243.735 443.353 243.735 446.055C243.735 446.857 243.891 447.692 243.891 448.544C243.891 450.685 243.754 451.961 243.754 452.621C243.754 453.928 243.754 454.937 245.216 454.937C246.299 454.937 246.785 454.395 246.785 453.387C246.785 452.584 246.542 451.818 246.542 451.084C246.542 450.997 246.561 450.822 246.679 450.822C246.835 450.822 247.077 451.102 247.183 451.208C247.775 451.856 248.335 452.69 248.945 453.387C249.555 454.134 250.271 454.937 251.248 454.937C252.225 454.937 252.835 454.308 252.835 453.349C252.835 452.547 252.119 452.092 251.509 451.731ZM247.762 448.887C246.592 448.887 246.262 448.171 246.262 447.125C246.262 446.708 246.331 445.974 246.66 445.662C247.046 445.332 247.513 445.264 247.949 445.264C248.945 445.264 249.847 445.806 249.847 446.87C249.847 448.021 249.362 448.893 247.756 448.893L247.762 448.887Z" fill="#6D2FEF"/>
<path d="M256.632 446.571C256.632 445.892 257.379 445.718 257.92 445.718C259.265 445.718 260.012 446.59 260.746 446.59C261.481 446.59 261.985 445.942 261.985 445.282C261.985 444.971 261.861 444.691 261.655 444.43C260.977 443.54 259.408 443.247 258.381 443.247C256.165 443.247 254.111 444.243 254.111 446.801C254.111 447.984 254.721 449.067 255.835 449.552C257.628 450.386 259.981 450.181 259.981 451.42C259.981 452.36 258.972 452.59 258.201 452.59C256.632 452.59 256.159 451.146 255.188 451.146C254.453 451.146 253.881 451.619 253.881 452.366C253.881 454.407 256.321 455.086 258.082 455.086C260.329 455.086 262.663 454.022 262.663 451.463C262.663 446.689 256.632 448.899 256.632 446.583V446.571Z" fill="#6D2FEF"/>
<path d="M270.836 452.217C269.722 452.217 268.433 452.497 267.313 452.497C266.635 452.497 266.23 452.061 266.23 451.401C266.23 450.654 266.541 450.132 267.344 450.132C267.78 450.132 268.458 450.181 268.894 450.181C269.504 450.181 270.774 450.132 270.774 449.048C270.774 448.283 270.55 447.76 269.417 447.76C268.875 447.76 267.898 447.81 267.363 447.81C266.354 447.81 266.211 447.443 266.211 446.54C266.211 445.774 266.84 445.631 267.45 445.631C268.39 445.631 269.404 445.893 270.431 445.893C271.234 445.893 271.757 445.494 271.757 444.654C271.757 443.26 270.693 443.26 269.597 443.26C268.95 443.26 268.166 443.366 267.506 443.366C267.033 443.366 266.585 443.347 266.093 443.347C264.244 443.347 263.79 443.92 263.79 445.942C263.79 446.59 263.809 447.387 263.809 448.034C263.809 449.273 263.703 450.524 263.703 451.849C263.703 453.001 263.74 454.85 265.271 454.85C266.803 454.85 268.39 454.987 269.909 454.987C271.06 454.987 272 454.675 272 453.592C272 452.827 271.651 452.217 270.83 452.217H270.836Z" fill="#6D2FEF"/>
</svg>
